<svg width="1000" height="1000" viewBox="0 0 1000 1000" fill="none" xmlns="http://www.w3.org/2000/svg">
<g clip-path="url(#clip0_3364_2)">
<g clip-path="url(#clip1_3364_2)">
<g clip-path="url(#clip2_3364_2)">
<mask id="mask0_3364_2" style="mask-type:luminance" maskUnits="userSpaceOnUse" x="0" y="0" width="1000" height="1000">
<path d="M650 0H350C156.7 0 0 156.7 0 350V650C0 843.3 156.7 1000 350 1000H650C843.3 1000 1000 843.3 1000 650V350C1000 156.7 843.3 0 650 0Z" fill="white"/>
</mask>
<g mask="url(#mask0_3364_2)">
<path d="M1000 0H0V1000H1000V0Z" fill="white"/>
<g clip-path="url(#clip3_3364_2)">
<path d="M217.709 454.062V623.438" stroke="#8E51FF" stroke-width="56.25" stroke-linecap="round" stroke-linejoin="round"/>
<path d="M302.396 591.237V538.75C302.396 485.521 302.396 458.905 318.932 442.37C335.469 425.833 362.082 425.834 415.312 425.834H528.229C554.536 425.834 567.687 425.833 578.065 430.132C591.897 435.862 602.89 446.853 608.62 460.687C612.917 471.062 612.917 484.214 612.917 510.521H697.605V468.178C697.605 455.024 697.605 448.448 699.753 443.26C702.618 436.343 708.114 430.848 715.03 427.983C720.219 425.834 726.796 425.834 739.949 425.834C753.1 425.834 759.678 425.834 764.866 427.983C771.783 430.848 777.279 436.343 780.144 443.26C782.292 448.448 782.292 455.024 782.292 468.178V665.781C782.292 678.933 782.292 685.51 780.144 690.699C777.279 697.615 771.783 703.112 764.866 705.977C759.678 708.125 753.1 708.125 739.949 708.125C726.796 708.125 720.219 708.125 715.03 705.977C708.114 703.112 702.618 697.615 699.753 690.699C697.605 685.51 697.605 678.933 697.605 665.781V595.209H612.917C612.917 648.438 612.917 675.051 596.38 691.589C579.844 708.125 553.229 708.125 500 708.125H421.271C404.302 708.125 395.817 708.125 387.816 705.703C379.816 703.282 372.756 698.573 358.636 689.16L352.677 685.189C328.064 668.779 315.756 660.573 309.076 648.09C302.396 635.61 302.396 620.818 302.396 591.237Z" stroke="#8E51FF" stroke-width="56.25" stroke-linecap="round" stroke-linejoin="round"/>
<path d="M302.396 538.75H217.709" stroke="#8E51FF" stroke-width="56.25" stroke-linecap="round" stroke-linejoin="round"/>
<path d="M457.656 425.834V341.146" stroke="#8E51FF" stroke-width="56.25" stroke-linecap="round" stroke-linejoin="round"/>
<path d="M358.854 341.146H556.459" stroke="#8E51FF" stroke-width="56.25" stroke-linecap="round" stroke-linejoin="round"/>
</g>
</g>
</g>
</g>
</g>
<defs>
<clipPath id="clip0_3364_2">
<rect width="1000" height="1000" fill="white"/>
</clipPath>
<clipPath id="clip1_3364_2">
<rect width="1000" height="1000" fill="white"/>
</clipPath>
<clipPath id="clip2_3364_2">
<rect width="1000" height="1000" fill="white"/>
</clipPath>
<clipPath id="clip3_3364_2">
<rect width="1000" height="1000" fill="white"/>
</clipPath>
</defs>
</svg>
